<?xml version="1.0" encoding="UTF-8"?>
<svg version="1.1" viewBox="0 0 24 24" xmlns="http://www.w3.org/2000/svg" xmlns:cc="http://creativecommons.org/ns#" xmlns:dc="http://purl.org/dc/elements/1.1/" xmlns:rdf="http://www.w3.org/1999/02/22-rdf-syntax-ns#">
<metadata>
<rdf:RDF>
<cc:Work rdf:about="">
<dc:format>image/svg+xml</dc:format>
<dc:type rdf:resource="http://purl.org/dc/dcmitype/StillImage"/>
<dc:title/>
</cc:Work>
</rdf:RDF>
</metadata>
<path d="M0 0h24v24H0z" fill="none"/>
<path d="M3 3h18a1 1 0 0 1 1 1v16a1 1 0 0 1-1 1H3a1 1 0 0 1-1-1V4a1 1 0 0 1 1-1zm17 7H4v9h16v-9zM5 6v2h2V6H5zm4 0v2h2V6H9z"/>
<g transform="matrix(.40194 0 0 .40194 7.0578 9.6671)">
<path d="m0 0h24v24h-24z" fill="none"/>
<path d="m11.602 13.76 1.412 1.412 8.466-8.466 1.414 1.414-9.88 9.88-6.364-6.364 1.414-1.414 2.125 2.125 1.413 1.412zm2e-3 -2.828 4.952-4.953 1.41 1.41-4.952 4.953zm-2.827 5.655-1.413 1.413-6.364-6.364 1.414-1.414 1.413 1.413-1e-3 1e-3z"/>
</g>
</svg>
